<?xml version="1.0" encoding="UTF-8"?>
<svg width="700pt" height="700pt" version="1.1" viewBox="0 0 700 700" xmlns="http://www.w3.org/2000/svg" xmlns:xlink="http://www.w3.org/1999/xlink">
 <defs>
  <symbol id="z" overflow="visible">
   <path d="m19.734-1.1875c-1.0117 0.53125-2.0703 0.93359-3.1719 1.2031-1.1055 0.26953-2.2578 0.40625-3.4531 0.40625-3.5859 0-6.4219-1-8.5156-3-2.0859-2-3.125-4.7109-3.125-8.1406 0-3.4375 1.0391-6.1562 3.125-8.1562 2.0938-2 4.9297-3 8.5156-3 1.1953 0 2.3477 0.13672 3.4531 0.40625 1.1016 0.27344 2.1602 0.66797 3.1719 1.1875v4.4531c-1.0234-0.69531-2.0312-1.207-3.0312-1.5312-1-0.33203-2.0547-0.5-3.1562-0.5-1.9688 0-3.5234 0.63672-4.6562 1.9062-1.1367 1.2617-1.7031 3.0078-1.7031 5.2344 0 2.2188 0.56641 3.9648 1.7031 5.2344 1.1328 1.2617 2.6875 1.8906 4.6562 1.8906 1.1016 0 2.1562-0.16016 3.1562-0.48438 1-0.33203 2.0078-0.84766 3.0312-1.5469z"/>
  </symbol>
  <symbol id="c" overflow="visible">
   <path d="m14.453-11.734c-0.46094-0.20703-0.91406-0.35938-1.3594-0.45312-0.4375-0.10156-0.88672-0.15625-1.3438-0.15625-1.3242 0-2.3438 0.42969-3.0625 1.2812-0.71094 0.84375-1.0625 2.0586-1.0625 3.6406v7.4219h-5.1562v-16.109h5.1562v2.6406c0.66406-1.0508 1.4258-1.8164 2.2812-2.2969 0.85156-0.48828 1.8828-0.73438 3.0938-0.73438 0.16406 0 0.34766 0.007812 0.54688 0.015625 0.20703 0.011719 0.50391 0.042969 0.89062 0.09375z"/>
  </symbol>
  <symbol id="b" overflow="visible">
   <path d="m18.562-8.0938v1.4531h-12.047c0.125 1.2109 0.5625 2.1211 1.3125 2.7344 0.75 0.60547 1.7969 0.90625 3.1406 0.90625 1.082 0 2.1914-0.16016 3.3281-0.48438 1.1328-0.32031 2.3008-0.8125 3.5-1.4688v3.9688c-1.2188 0.46875-2.4375 0.82031-3.6562 1.0469-1.2188 0.23828-2.4375 0.35938-3.6562 0.35938-2.918 0-5.1836-0.73828-6.7969-2.2188-1.6172-1.4883-2.4219-3.5703-2.4219-6.25 0-2.625 0.78906-4.6875 2.375-6.1875 1.5938-1.5078 3.7812-2.2656 6.5625-2.2656 2.5312 0 4.5547 0.76562 6.0781 2.2969 1.5195 1.5234 2.2812 3.5586 2.2812 6.1094zm-5.2969-1.7188c0-0.97656-0.28906-1.7656-0.85938-2.3594-0.57422-0.60156-1.3203-0.90625-2.2344-0.90625-1 0-1.8125 0.28125-2.4375 0.84375-0.61719 0.5625-1 1.3711-1.1562 2.4219z"/>
  </symbol>
  <symbol id="g" overflow="visible">
   <path d="m9.7031-7.25c-1.0742 0-1.8867 0.18359-2.4375 0.54688-0.54297 0.36719-0.8125 0.90234-0.8125 1.6094 0 0.65625 0.21875 1.1719 0.65625 1.5469 0.4375 0.36719 1.0469 0.54688 1.8281 0.54688 0.96875 0 1.7812-0.34766 2.4375-1.0469 0.66406-0.69531 1-1.5664 1-2.6094v-0.59375zm7.8594-1.9375v9.1875h-5.1875v-2.3906c-0.6875 0.98047-1.4648 1.6953-2.3281 2.1406-0.86719 0.44531-1.918 0.67188-3.1562 0.67188-1.668 0-3.0234-0.48438-4.0625-1.4531-1.043-0.97656-1.5625-2.2422-1.5625-3.7969 0-1.8945 0.64844-3.2812 1.9531-4.1562 1.3008-0.88281 3.3438-1.3281 6.125-1.3281h3.0312v-0.40625c0-0.8125-0.32422-1.4062-0.96875-1.7812-0.63672-0.38281-1.6367-0.57812-3-0.57812-1.1055 0-2.1328 0.10938-3.0781 0.32812-0.94922 0.21875-1.8359 0.55469-2.6562 1v-3.9375c1.1016-0.26953 2.2109-0.47266 3.3281-0.60938 1.1133-0.13281 2.2266-0.20312 3.3438-0.20312 2.9062 0 5 0.57422 6.2812 1.7188 1.2891 1.1484 1.9375 3.0117 1.9375 5.5938z"/>
  </symbol>
  <symbol id="a" overflow="visible">
   <path d="m8.0938-20.688v4.5781h5.3125v3.6719h-5.3125v6.8438c0 0.75 0.14844 1.2578 0.45312 1.5156 0.30078 0.26172 0.89062 0.39062 1.7656 0.39062h2.6562v3.6875h-4.4219c-2.0312 0-3.4766-0.42188-4.3281-1.2656-0.84375-0.85156-1.2656-2.2969-1.2656-4.3281v-6.8438h-2.5625v-3.6719h2.5625v-4.5781z"/>
  </symbol>
  <symbol id="j" overflow="visible">
   <path d="m13.438-13.75v-8.6406h5.1875v22.391h-5.1875v-2.3281c-0.71094 0.94922-1.4922 1.6484-2.3438 2.0938-0.85547 0.4375-1.8438 0.65625-2.9688 0.65625-1.9805 0-3.6094-0.78516-4.8906-2.3594-1.2734-1.582-1.9062-3.6172-1.9062-6.1094 0-2.4766 0.63281-4.5039 1.9062-6.0781 1.2812-1.582 2.9102-2.375 4.8906-2.375 1.1133 0 2.0977 0.22656 2.9531 0.67188 0.86328 0.4375 1.6484 1.1328 2.3594 2.0781zm-3.3906 10.422c1.1016 0 1.9414-0.39844 2.5156-1.2031 0.58203-0.80078 0.875-1.9727 0.875-3.5156 0-1.5312-0.29297-2.6953-0.875-3.5-0.57422-0.8125-1.4141-1.2188-2.5156-1.2188-1.0938 0-1.9336 0.40625-2.5156 1.2188-0.58594 0.80469-0.875 1.9688-0.875 3.5 0 1.543 0.28906 2.7148 0.875 3.5156 0.58203 0.80469 1.4219 1.2031 2.5156 1.2031z"/>
  </symbol>
  <symbol id="f" overflow="visible">
   <path d="m11.047-3.3281c1.1016 0 1.9453-0.39844 2.5312-1.2031 0.58203-0.80078 0.875-1.9727 0.875-3.5156 0-1.5312-0.29297-2.6953-0.875-3.5-0.58594-0.8125-1.4297-1.2188-2.5312-1.2188-1.1055 0-1.9531 0.40625-2.5469 1.2188-0.58594 0.8125-0.875 1.9805-0.875 3.5 0 1.5312 0.28906 2.7031 0.875 3.5156 0.59375 0.80469 1.4414 1.2031 2.5469 1.2031zm-3.4219-10.422c0.70703-0.94531 1.4922-1.6406 2.3594-2.0781 0.86328-0.44531 1.8594-0.67188 2.9844-0.67188 1.9766 0 3.6016 0.79297 4.875 2.375 1.2812 1.5742 1.9219 3.6016 1.9219 6.0781 0 2.4922-0.64062 4.5273-1.9219 6.1094-1.2734 1.5742-2.8984 2.3594-4.875 2.3594-1.125 0-2.1211-0.22656-2.9844-0.67188-0.86719-0.44531-1.6523-1.1406-2.3594-2.0781v2.3281h-5.1562v-22.391h5.1562z"/>
  </symbol>
  <symbol id="i" overflow="visible">
   <path d="m0.35938-16.109h5.1562l4.3281 10.922 3.6875-10.922h5.1406l-6.7656 17.641c-0.6875 1.7891-1.4844 3.0391-2.3906 3.75-0.90625 0.71875-2.1055 1.0781-3.5938 1.0781h-2.9688v-3.375h1.6094c0.875 0 1.5078-0.14062 1.9062-0.42188 0.39453-0.28125 0.70312-0.78125 0.92188-1.5l0.15625-0.4375z"/>
  </symbol>
  <symbol id="e" overflow="visible">
   <path d="m2.2969-6.2812v-9.8281h5.1875v1.6094c0 0.875-0.007813 1.9766-0.015625 3.2969-0.011719 1.3125-0.015625 2.1875-0.015625 2.625 0 1.293 0.03125 2.2266 0.09375 2.7969 0.070313 0.57422 0.19141 0.99219 0.35938 1.25 0.20703 0.33594 0.47656 0.59375 0.8125 0.78125 0.34375 0.17969 0.73828 0.26562 1.1875 0.26562 1.0703 0 1.9141-0.41016 2.5312-1.2344 0.61328-0.82031 0.92188-1.9688 0.92188-3.4375v-7.9531h5.1406v16.109h-5.1406v-2.3281c-0.78125 0.9375-1.6094 1.6328-2.4844 2.0781-0.86719 0.44531-1.8203 0.67188-2.8594 0.67188-1.8672 0-3.2891-0.56641-4.2656-1.7031-0.96875-1.1445-1.4531-2.8125-1.4531-5z"/>
  </symbol>
  <symbol id="h" overflow="visible">
   <path d="m2.4688-16.109h5.1562v16.109h-5.1562zm0-6.2812h5.1562v4.2031h-5.1562z"/>
  </symbol>
  <symbol id="y" overflow="visible">
   <path d="m2.4688-22.391h5.1562v22.391h-5.1562z"/>
  </symbol>
  <symbol id="x" overflow="visible">
   <path d="m10.047-12.766c-1.0938 0-1.9336 0.40625-2.5156 1.2188-0.58594 0.80469-0.875 1.9688-0.875 3.5 0 1.543 0.28906 2.7148 0.875 3.5156 0.58203 0.80469 1.4219 1.2031 2.5156 1.2031 1.1016 0 1.9414-0.39844 2.5156-1.2031 0.58203-0.80078 0.875-1.9727 0.875-3.5156 0-1.5312-0.29297-2.6953-0.875-3.5-0.57422-0.8125-1.4141-1.2188-2.5156-1.2188zm3.3906 10.438c-0.71094 0.94922-1.4922 1.6484-2.3438 2.0938-0.85547 0.4375-1.8438 0.65625-2.9688 0.65625-1.9805 0-3.6094-0.78516-4.8906-2.3594-1.2734-1.582-1.9062-3.6172-1.9062-6.1094 0-2.4766 0.63281-4.5 1.9062-6.0625 1.2812-1.5703 2.9102-2.3594 4.8906-2.3594 1.125 0 2.1133 0.21875 2.9688 0.65625 0.85156 0.4375 1.6328 1.1328 2.3438 2.0781v-2.375h5.1875v22.234h-5.1875z"/>
  </symbol>
  <symbol id="w" overflow="visible">
   <path d="m15.062-15.609v3.9062c-1.1055-0.45703-2.1719-0.80078-3.2031-1.0312-1.0234-0.22656-1.9844-0.34375-2.8906-0.34375-0.98047 0-1.7109 0.125-2.1875 0.375-0.46875 0.24219-0.70312 0.61719-0.70312 1.125 0 0.40625 0.17578 0.72656 0.53125 0.95312 0.36328 0.21875 1.0078 0.38281 1.9375 0.48438l0.90625 0.125c2.6328 0.33594 4.4062 0.88672 5.3125 1.6562 0.91406 0.77344 1.375 1.9766 1.375 3.6094 0 1.7188-0.63672 3.0117-1.9062 3.875-1.2617 0.86719-3.1484 1.2969-5.6562 1.2969-1.0625 0-2.168-0.089844-3.3125-0.26562-1.1367-0.16406-2.3047-0.41406-3.5-0.75v-3.9062c1.0312 0.5 2.082 0.875 3.1562 1.125 1.082 0.25 2.1797 0.375 3.2969 0.375 1.0078 0 1.7656-0.14062 2.2656-0.42188 0.50781-0.28125 0.76562-0.69141 0.76562-1.2344 0-0.46875-0.17969-0.8125-0.53125-1.0312-0.34375-0.22656-1.0391-0.40625-2.0781-0.53125l-0.90625-0.10938c-2.3047-0.28906-3.9141-0.82031-4.8281-1.5938-0.91797-0.78125-1.375-1.9609-1.375-3.5469 0-1.707 0.58203-2.9727 1.75-3.7969 1.1641-0.82031 2.957-1.2344 5.375-1.2344 0.95703 0 1.957 0.074219 3 0.21875 1.0391 0.13672 2.1758 0.35938 3.4062 0.67188z"/>
  </symbol>
  <symbol id="v" overflow="visible">
   <path d="m3.4531-3.8281h4.8906v-13.891l-5.0156 1.0469v-3.7812l4.9844-1.0312h5.2656v17.656h4.8906v3.8281h-15.016z"/>
  </symbol>
  <symbol id="u" overflow="visible">
   <path d="m2.9531-0.46875v-3.9844c0.88281 0.41797 1.7266 0.73047 2.5312 0.9375 0.80078 0.21094 1.5977 0.3125 2.3906 0.3125 1.6445 0 2.9258-0.45703 3.8438-1.375 0.92578-0.91406 1.4727-2.2734 1.6406-4.0781-0.65625 0.48047-1.3555 0.83984-2.0938 1.0781-0.74219 0.24219-1.543 0.35938-2.4062 0.35938-2.1992 0-3.9688-0.64062-5.3125-1.9219s-2.0156-2.9688-2.0156-5.0625c0-2.3125 0.75-4.1602 2.25-5.5469 1.5-1.3945 3.5078-2.0938 6.0312-2.0938 2.8008 0 4.9688 0.94922 6.5 2.8438 1.5391 1.8867 2.3125 4.5547 2.3125 8 0 3.5547-0.90234 6.3438-2.7031 8.375-1.793 2.0312-4.25 3.0469-7.375 3.0469-1.0117 0-1.9766-0.078125-2.8906-0.23438-0.91797-0.14844-1.8203-0.36328-2.7031-0.65625zm6.8281-10.359c0.96875 0 1.6953-0.3125 2.1875-0.9375 0.48828-0.625 0.73438-1.5664 0.73438-2.8281 0-1.25-0.24609-2.1875-0.73438-2.8125-0.49219-0.63281-1.2188-0.95312-2.1875-0.95312s-1.6992 0.32031-2.1875 0.95312c-0.49219 0.625-0.73438 1.5625-0.73438 2.8125 0 1.2617 0.24219 2.2031 0.73438 2.8281 0.48828 0.625 1.2188 0.9375 2.1875 0.9375z"/>
  </symbol>
  <symbol id="t" overflow="visible">
   <path d="m10.266-9.6094c-1.043 0-1.8438 0.28906-2.4062 0.85938-0.55469 0.5625-0.82812 1.3711-0.82812 2.4219 0 1.0547 0.27344 1.8594 0.82812 2.4219 0.5625 0.5625 1.3633 0.84375 2.4062 0.84375 1.0195 0 1.8008-0.28125 2.3438-0.84375 0.55078-0.5625 0.82812-1.3672 0.82812-2.4219 0-1.0625-0.27734-1.875-0.82812-2.4375-0.54297-0.5625-1.3242-0.84375-2.3438-0.84375zm-4.0469-1.8281c-1.3047-0.39453-2.2891-1-2.9531-1.8125-0.65625-0.8125-0.98438-1.8281-0.98438-3.0469 0-1.8125 0.67188-3.1914 2.0156-4.1406 1.3516-0.95703 3.3438-1.4375 5.9688-1.4375 2.5938 0 4.5664 0.47656 5.9219 1.4219 1.3516 0.94922 2.0312 2.3359 2.0312 4.1562 0 1.2188-0.33594 2.2344-1 3.0469-0.66797 0.8125-1.6523 1.418-2.9531 1.8125 1.457 0.40625 2.5547 1.0625 3.2969 1.9688 0.73828 0.90625 1.1094 2.0469 1.1094 3.4219 0 2.1367-0.71094 3.75-2.125 4.8438-1.4062 1.0859-3.5 1.625-6.2812 1.625-2.793 0-4.9023-0.53906-6.3281-1.625-1.4297-1.0938-2.1406-2.707-2.1406-4.8438 0-1.375 0.36719-2.5156 1.1094-3.4219 0.75-0.90625 1.8516-1.5625 3.3125-1.9688zm1.2969-4.2969c0 0.84375 0.23438 1.5 0.70312 1.9688 0.47656 0.46094 1.1602 0.6875 2.0469 0.6875 0.85156 0 1.5156-0.22656 1.9844-0.6875 0.47656-0.46875 0.71875-1.125 0.71875-1.9688 0-0.85156-0.24219-1.5078-0.71875-1.9688-0.46875-0.45703-1.1328-0.6875-1.9844-0.6875-0.88672 0-1.5703 0.23047-2.0469 0.6875-0.46875 0.46094-0.70312 1.1172-0.70312 1.9688z"/>
  </symbol>
  <symbol id="s" overflow="visible">
   <path d="m10.656-10.609c-0.96875 0-1.6992 0.32031-2.1875 0.95312-0.48047 0.625-0.71875 1.5703-0.71875 2.8281 0 1.25 0.23828 2.1953 0.71875 2.8281 0.48828 0.625 1.2188 0.9375 2.1875 0.9375 0.97656 0 1.707-0.3125 2.1875-0.9375 0.48828-0.63281 0.73438-1.5781 0.73438-2.8281 0-1.2578-0.24609-2.2031-0.73438-2.8281-0.48047-0.63281-1.2109-0.95312-2.1875-0.95312zm6.8594-10.312v3.9688c-0.91797-0.42578-1.7773-0.74219-2.5781-0.95312-0.80469-0.20703-1.5898-0.3125-2.3594-0.3125-1.6562 0-2.9453 0.46094-3.8594 1.375-0.91797 0.91797-1.4531 2.2773-1.6094 4.0781 0.63281-0.46875 1.3203-0.81641 2.0625-1.0469 0.73828-0.23828 1.5391-0.35938 2.4062-0.35938 2.1953 0 3.9688 0.64844 5.3125 1.9375 1.3516 1.2812 2.0312 2.9648 2.0312 5.0469 0 2.3047-0.75781 4.1484-2.2656 5.5312-1.5 1.3867-3.5156 2.0781-6.0469 2.0781-2.793 0-4.9531-0.94141-6.4844-2.8281-1.5312-1.8828-2.2969-4.5625-2.2969-8.0312 0-3.5391 0.89062-6.3281 2.6719-8.3594 1.7891-2.0312 4.25-3.0469 7.375-3.0469 0.98828 0 1.9453 0.078125 2.875 0.23438 0.92578 0.15625 1.8477 0.38672 2.7656 0.6875z"/>
  </symbol>
  <symbol id="r" overflow="visible">
   <path d="m13.078-22.391v3.375h-2.8438c-0.73047 0-1.2422 0.13672-1.5312 0.40625-0.28125 0.26172-0.42188 0.71875-0.42188 1.375v1.125h4.3906v3.6719h-4.3906v12.438h-5.1562v-12.438h-2.5625v-3.6719h2.5625v-1.125c0-1.7578 0.48828-3.0547 1.4688-3.8906 0.97656-0.84375 2.4922-1.2656 4.5469-1.2656z"/>
  </symbol>
  <symbol id="d" overflow="visible">
   <path d="m10.141-12.828c-1.1367 0-2.0078 0.41406-2.6094 1.2344-0.59375 0.82422-0.89062 2.0078-0.89062 3.5469 0 1.543 0.29688 2.7266 0.89062 3.5469 0.60156 0.82422 1.4727 1.2344 2.6094 1.2344 1.125 0 1.9844-0.41016 2.5781-1.2344 0.59375-0.82031 0.89062-2.0039 0.89062-3.5469 0-1.5391-0.29688-2.7227-0.89062-3.5469-0.59375-0.82031-1.4531-1.2344-2.5781-1.2344zm0-3.6719c2.7695 0 4.9375 0.75 6.5 2.25 1.5625 1.4922 2.3438 3.5586 2.3438 6.2031 0 2.6484-0.78125 4.7188-2.3438 6.2188s-3.7305 2.25-6.5 2.25c-2.7812 0-4.9609-0.75-6.5312-2.25-1.5625-1.5-2.3438-3.5703-2.3438-6.2188 0-2.6445 0.78125-4.7109 2.3438-6.2031 1.5703-1.5 3.75-2.25 6.5312-2.25z"/>
  </symbol>
  <symbol id="q" overflow="visible">
   <path d="m17.406-13.438c0.65625-1 1.4297-1.7578 2.3281-2.2812 0.89453-0.51953 1.8789-0.78125 2.9531-0.78125 1.8516 0 3.2656 0.57422 4.2344 1.7188 0.96875 1.1367 1.4531 2.793 1.4531 4.9688v9.8125h-5.1875v-8.4062c0.007812-0.125 0.015625-0.25391 0.015625-0.39062 0.007813-0.13281 0.015625-0.32812 0.015625-0.57812 0-1.1328-0.16797-1.957-0.5-2.4688-0.33594-0.51953-0.875-0.78125-1.625-0.78125-0.98047 0-1.7344 0.40625-2.2656 1.2188-0.53125 0.80469-0.80859 1.9688-0.82812 3.5v7.9062h-5.1719v-8.4062c0-1.7812-0.15625-2.9258-0.46875-3.4375-0.30469-0.51953-0.85156-0.78125-1.6406-0.78125-0.99219 0-1.7578 0.40625-2.2969 1.2188-0.53125 0.8125-0.79688 1.9766-0.79688 3.4844v7.9219h-5.1719v-16.109h5.1719v2.3594c0.63281-0.91406 1.3594-1.6016 2.1719-2.0625 0.82031-0.45703 1.7266-0.6875 2.7188-0.6875 1.1133 0 2.0977 0.27344 2.9531 0.8125 0.85156 0.53125 1.5 1.2812 1.9375 2.25z"/>
  </symbol>
  <symbol id="p" overflow="visible">
   <path d="m18.672-9.8125v9.8125h-5.1719v-7.4844c0-1.4062-0.03125-2.375-0.09375-2.9062s-0.17188-0.91406-0.32812-1.1562c-0.19922-0.34375-0.47656-0.60938-0.82812-0.79688-0.34375-0.1875-0.73438-0.28125-1.1719-0.28125-1.0742 0-1.918 0.41797-2.5312 1.25-0.61719 0.83594-0.92188 1.9844-0.92188 3.4531v7.9219h-5.1562v-22.391h5.1562v8.6406c0.78125-0.94531 1.6016-1.6406 2.4688-2.0781 0.875-0.44531 1.8438-0.67188 2.9062-0.67188 1.8516 0 3.2578 0.57422 4.2188 1.7188 0.96875 1.1367 1.4531 2.793 1.4531 4.9688z"/>
  </symbol>
  <symbol id="o" overflow="visible">
   <path d="m2.7031-21.484h6.1875l7.8125 14.734v-14.734h5.25v21.484h-6.1875l-7.8125-14.734v14.734h-5.25z"/>
  </symbol>
  <symbol id="n" overflow="visible">
   <path d="m18.672-9.8125v9.8125h-5.1719v-7.5156c0-1.3828-0.03125-2.3438-0.09375-2.875s-0.17188-0.91406-0.32812-1.1562c-0.19922-0.34375-0.47656-0.60938-0.82812-0.79688-0.34375-0.1875-0.73438-0.28125-1.1719-0.28125-1.0742 0-1.918 0.41797-2.5312 1.25-0.61719 0.83594-0.92188 1.9844-0.92188 3.4531v7.9219h-5.1562v-16.109h5.1562v2.3594c0.78125-0.94531 1.6016-1.6406 2.4688-2.0781 0.875-0.44531 1.8438-0.67188 2.9062-0.67188 1.8516 0 3.2578 0.57422 4.2188 1.7188 0.96875 1.1367 1.4531 2.793 1.4531 4.9688z"/>
  </symbol>
  <symbol id="m" overflow="visible">
   <path d="m2.7031-21.484h9.2031c2.7266 0 4.8203 0.60938 6.2812 1.8281 1.4688 1.2109 2.2031 2.9375 2.2031 5.1875s-0.73438 3.9844-2.2031 5.2031c-1.4609 1.2109-3.5547 1.8125-6.2812 1.8125h-3.6562v7.4531h-5.5469zm5.5469 4.0156v6h3.0625c1.0703 0 1.8984-0.25781 2.4844-0.78125 0.58203-0.51953 0.875-1.2578 0.875-2.2188 0-0.96875-0.29297-1.707-0.875-2.2188-0.58594-0.51953-1.4141-0.78125-2.4844-0.78125z"/>
  </symbol>
  <symbol id="l" overflow="visible">
   <path d="m2.4688-16.109h5.1562v15.828c0 2.1562-0.52344 3.8008-1.5625 4.9375-1.0312 1.1328-2.5312 1.7031-4.5 1.7031h-2.5469v-3.375h0.89062c0.97656 0 1.6484-0.22656 2.0156-0.67188 0.36328-0.4375 0.54688-1.3047 0.54688-2.5938zm0-6.2812h5.1562v4.2031h-5.1562z"/>
  </symbol>
  <symbol id="k" overflow="visible">
   <path d="m15.5-15.609v4.2031c-0.69922-0.47656-1.4023-0.83203-2.1094-1.0625-0.71094-0.23828-1.4453-0.35938-2.2031-0.35938-1.4375 0-2.5586 0.42188-3.3594 1.2656-0.79297 0.84375-1.1875 2.0156-1.1875 3.5156 0 1.5117 0.39453 2.6875 1.1875 3.5312 0.80078 0.83594 1.9219 1.25 3.3594 1.25 0.8125 0 1.5781-0.11719 2.2969-0.35938 0.72656-0.23828 1.3984-0.59375 2.0156-1.0625v4.2188c-0.8125 0.29297-1.6367 0.50781-2.4688 0.65625-0.82422 0.15625-1.6523 0.23438-2.4844 0.23438-2.9062 0-5.1836-0.74219-6.8281-2.2344-1.6367-1.5-2.4531-3.5781-2.4531-6.2344s0.81641-4.7266 2.4531-6.2188c1.6445-1.4883 3.9219-2.2344 6.8281-2.2344 0.84375 0 1.6758 0.074219 2.5 0.21875 0.82031 0.14844 1.6406 0.37109 2.4531 0.67188z"/>
  </symbol>
 </defs>
 <g>
  <path d="m286.57 284.58-168.68 130.02v-260.05zm75.453-2.2383 198.5-153.02h-421.06l198.51 153.04c3.4102 2.7305 7.6484 4.2227 12.02 4.2227s8.6094-1.4922 12.02-4.2227zm51.406 2.2383 168.67-130.02v260.05l-168.68-130.03zm-95.703 24.02-4.0078-3.082-162.38 125.16h397.3l-162.39-125.16-4.0078 3.082c-9.2031 7.2305-20.562 11.16-32.266 11.16-11.699 0-23.059-3.9297-32.262-11.16zm-200.88 155.24h466.28c8.5156-0.007813 16.684-3.3945 22.707-9.4141 6.0234-6.0234 9.4141-14.188 9.4219-22.707v-303.44c-0.007813-8.5156-3.3984-16.68-9.418-22.699-6.0234-6.0234-14.184-9.4102-22.699-9.4219h-466.29c-8.5156 0.011719-16.68 3.3984-22.699 9.418-6.0234 6.0234-9.4102 14.188-9.418 22.703v303.44c0.007813 8.5156 3.3945 16.684 9.4141 22.703 6.0234 6.0234 14.188 9.4102 22.703 9.418z" fill-rule="evenodd"/>
  <use x="70" y="648.421875" xlink:href="#z"/>
  <use x="91.628906" y="648.421875" xlink:href="#c"/>
  <use x="106.164062" y="648.421875" xlink:href="#b"/>
  <use x="126.15625" y="648.421875" xlink:href="#g"/>
  <use x="146.042969" y="648.421875" xlink:href="#a"/>
  <use x="160.132812" y="648.421875" xlink:href="#b"/>
  <use x="180.125" y="648.421875" xlink:href="#j"/>
  <use x="211.480469" y="648.421875" xlink:href="#f"/>
  <use x="232.582031" y="648.421875" xlink:href="#i"/>
  <use x="262.054688" y="648.421875" xlink:href="#c"/>
  <use x="276.589844" y="648.421875" xlink:href="#g"/>
  <use x="296.476562" y="648.421875" xlink:href="#a"/>
  <use x="310.566406" y="648.421875" xlink:href="#e"/>
  <use x="331.550781" y="648.421875" xlink:href="#f"/>
  <use x="352.648438" y="648.421875" xlink:href="#h"/>
  <use x="362.75" y="648.421875" xlink:href="#y"/>
  <use x="372.855469" y="648.421875" xlink:href="#x"/>
  <use x="393.953125" y="648.421875" xlink:href="#h"/>
  <use x="404.054688" y="648.421875" xlink:href="#w"/>
  <use x="421.597656" y="648.421875" xlink:href="#v"/>
  <use x="442.105469" y="648.421875" xlink:href="#u"/>
  <use x="462.613281" y="648.421875" xlink:href="#t"/>
  <use x="483.121094" y="648.421875" xlink:href="#s"/>
  <use x="70" y="677.894531" xlink:href="#r"/>
  <use x="82.824219" y="677.894531" xlink:href="#c"/>
  <use x="97.359375" y="677.894531" xlink:href="#d"/>
  <use x="117.605469" y="677.894531" xlink:href="#q"/>
  <use x="158.578125" y="677.894531" xlink:href="#a"/>
  <use x="172.667969" y="677.894531" xlink:href="#p"/>
  <use x="193.652344" y="677.894531" xlink:href="#b"/>
  <use x="223.902344" y="677.894531" xlink:href="#o"/>
  <use x="248.570312" y="677.894531" xlink:href="#d"/>
  <use x="268.816406" y="677.894531" xlink:href="#e"/>
  <use x="289.800781" y="677.894531" xlink:href="#n"/>
  <use x="321.042969" y="677.894531" xlink:href="#m"/>
  <use x="342.644531" y="677.894531" xlink:href="#c"/>
  <use x="357.179688" y="677.894531" xlink:href="#d"/>
  <use x="377.429688" y="677.894531" xlink:href="#l"/>
  <use x="387.53125" y="677.894531" xlink:href="#b"/>
  <use x="407.523437" y="677.894531" xlink:href="#k"/>
  <use x="424.992188" y="677.894531" xlink:href="#a"/>
 </g>
</svg>
