<?xml version="1.0" encoding="UTF-8"?>
<svg width="700pt" height="700pt" version="1.1" viewBox="0 0 700 700" xmlns="http://www.w3.org/2000/svg" xmlns:xlink="http://www.w3.org/1999/xlink">
 <defs>
  <symbol id="u" overflow="visible">
   <path d="m1.8281-0.10938c-0.09375 0.054688-0.19531 0.089844-0.29688 0.10938-0.09375 0.019531-0.19922 0.03125-0.3125 0.03125-0.33594 0-0.60156-0.085938-0.79688-0.26562-0.1875-0.1875-0.28125-0.44141-0.28125-0.76562 0-0.3125 0.09375-0.5625 0.28125-0.75 0.19531-0.1875 0.46094-0.28125 0.79688-0.28125 0.11328 0 0.21875 0.015625 0.3125 0.046875 0.10156 0.023437 0.20312 0.058594 0.29688 0.10938v0.40625c-0.09375-0.0625-0.1875-0.10938-0.28125-0.14062s-0.19531-0.046875-0.29688-0.046875c-0.17969 0-0.32031 0.0625-0.42188 0.1875-0.10547 0.11719-0.15625 0.27344-0.15625 0.46875 0 0.21094 0.050781 0.375 0.15625 0.5 0.10156 0.11719 0.24219 0.17188 0.42188 0.17188 0.10156 0 0.20312-0.015625 0.29688-0.046875s0.1875-0.078125 0.28125-0.14062z"/>
  </symbol>
  <symbol id="d" overflow="visible">
   <path d="m1.3438-1.0938c-0.042969-0.019531-0.085938-0.03125-0.125-0.03125-0.042969-0.007812-0.085938-0.015625-0.125-0.015625-0.125 0-0.22656 0.042969-0.29688 0.125-0.0625 0.074219-0.09375 0.18359-0.09375 0.32812v0.6875h-0.46875v-1.5h0.46875v0.25c0.0625-0.09375 0.12891-0.16016 0.20312-0.20312 0.082031-0.050781 0.17969-0.078125 0.29688-0.078125h0.046875c0.019531 0 0.050781 0.007812 0.09375 0.015625z"/>
  </symbol>
  <symbol id="b" overflow="visible">
   <path d="m1.7188-0.75v0.14062h-1.1094c0.007813 0.10547 0.046875 0.1875 0.10938 0.25 0.070312 0.054687 0.17188 0.078125 0.29688 0.078125 0.10156 0 0.20703-0.015625 0.3125-0.046875 0.10156-0.03125 0.21094-0.070313 0.32812-0.125v0.35938c-0.11719 0.042969-0.23047 0.074219-0.34375 0.09375-0.11719 0.019531-0.23047 0.03125-0.34375 0.03125-0.27344 0-0.48047-0.066406-0.625-0.20312-0.14844-0.13281-0.21875-0.32812-0.21875-0.57812 0-0.23828 0.070312-0.42578 0.21875-0.5625 0.14453-0.14453 0.34766-0.21875 0.60938-0.21875 0.22656 0 0.41016 0.074219 0.54688 0.21875 0.14453 0.13672 0.21875 0.32422 0.21875 0.5625zm-0.48438-0.15625c0-0.09375-0.027344-0.16406-0.078125-0.21875-0.054688-0.0625-0.125-0.09375-0.21875-0.09375-0.085938 0-0.15625 0.027344-0.21875 0.078125-0.0625 0.054687-0.10156 0.13281-0.10938 0.23438z"/>
  </symbol>
  <symbol id="c" overflow="visible">
   <path d="m0.90625-0.67188c-0.10547 0-0.18359 0.015625-0.23438 0.046875-0.054687 0.03125-0.078125 0.085938-0.078125 0.15625 0 0.0625 0.019531 0.10938 0.0625 0.14062 0.039062 0.03125 0.097656 0.046875 0.17188 0.046875 0.09375 0 0.16406-0.03125 0.21875-0.09375 0.0625-0.0625 0.09375-0.14453 0.09375-0.25v-0.046875zm0.71875-0.1875v0.85938h-0.48438v-0.21875c-0.0625 0.09375-0.13672 0.16406-0.21875 0.20312-0.074219 0.03125-0.16797 0.046875-0.28125 0.046875-0.15625 0-0.28125-0.039062-0.375-0.125-0.09375-0.09375-0.14062-0.21094-0.14062-0.35938 0-0.17578 0.054688-0.30078 0.17188-0.375 0.125-0.082031 0.3125-0.125 0.5625-0.125h0.28125v-0.046875c0-0.070312-0.03125-0.125-0.09375-0.15625-0.054687-0.039062-0.14062-0.0625-0.26562-0.0625-0.10547 0-0.20312 0.011719-0.29688 0.03125-0.085937 0.023438-0.16406 0.054688-0.23438 0.09375v-0.35938c0.10156-0.03125 0.20703-0.050781 0.3125-0.0625 0.10156-0.007813 0.20312-0.015625 0.29688-0.015625 0.26953 0 0.46094 0.054688 0.57812 0.15625 0.125 0.10547 0.1875 0.27734 0.1875 0.51562z"/>
  </symbol>
  <symbol id="a" overflow="visible">
   <path d="m0.75-1.9219v0.42188h0.5v0.34375h-0.5v0.64062c0 0.0625 0.007812 0.10938 0.03125 0.14062 0.03125 0.023438 0.085938 0.03125 0.17188 0.03125h0.25v0.34375h-0.40625c-0.1875 0-0.32422-0.035156-0.40625-0.10938-0.074219-0.082031-0.10938-0.21875-0.10938-0.40625v-0.64062h-0.25v-0.34375h0.25v-0.42188z"/>
  </symbol>
  <symbol id="l" overflow="visible">
   <path d="m1.25-1.2812v-0.79688h0.48438v2.0781h-0.48438v-0.21875c-0.074219 0.09375-0.15234 0.16406-0.23438 0.20312-0.074219 0.03125-0.16406 0.046875-0.26562 0.046875-0.17969 0-0.32812-0.070312-0.45312-0.21875-0.11719-0.14453-0.17188-0.33203-0.17188-0.5625 0-0.22656 0.054688-0.41406 0.17188-0.5625 0.125-0.14453 0.27344-0.21875 0.45312-0.21875 0.10156 0 0.19141 0.023438 0.26562 0.0625 0.082031 0.042969 0.16016 0.10547 0.23438 0.1875zm-0.3125 0.96875c0.09375 0 0.16406-0.035156 0.21875-0.10938 0.0625-0.070313 0.09375-0.17969 0.09375-0.32812 0-0.13281-0.03125-0.23828-0.09375-0.3125-0.054688-0.082031-0.125-0.125-0.21875-0.125-0.10547 0-0.18359 0.042969-0.23438 0.125-0.054687 0.074219-0.078125 0.17969-0.078125 0.3125 0 0.14844 0.023438 0.25781 0.078125 0.32812 0.050781 0.074219 0.12891 0.10938 0.23438 0.10938z"/>
  </symbol>
  <symbol id="k" overflow="visible">
   <path d="m1.0312-0.3125c0.09375 0 0.16406-0.035156 0.21875-0.10938 0.0625-0.070313 0.09375-0.17969 0.09375-0.32812 0-0.13281-0.03125-0.23828-0.09375-0.3125-0.054688-0.082031-0.125-0.125-0.21875-0.125-0.10547 0-0.1875 0.042969-0.25 0.125-0.054688 0.074219-0.078125 0.17969-0.078125 0.3125 0 0.14844 0.023437 0.25781 0.078125 0.32812 0.0625 0.074219 0.14453 0.10938 0.25 0.10938zm-0.32812-0.96875c0.070313-0.082031 0.14453-0.14453 0.21875-0.1875 0.082031-0.039062 0.17578-0.0625 0.28125-0.0625 0.1875 0 0.33594 0.074219 0.45312 0.21875 0.11328 0.14844 0.17188 0.33594 0.17188 0.5625 0 0.23047-0.058594 0.41797-0.17188 0.5625-0.11719 0.14844-0.26562 0.21875-0.45312 0.21875-0.10547 0-0.19922-0.015625-0.28125-0.046875-0.074219-0.039062-0.14844-0.10938-0.21875-0.20312v0.21875h-0.46875v-2.0781h0.46875z"/>
  </symbol>
  <symbol id="j" overflow="visible">
   <path d="m0.03125-1.5h0.48438l0.39062 1.0156 0.34375-1.0156h0.48438l-0.625 1.6406c-0.0625 0.16406-0.14062 0.28125-0.23438 0.34375-0.085938 0.070313-0.19531 0.10938-0.32812 0.10938h-0.26562v-0.3125h0.14062c0.082031 0 0.14062-0.015625 0.17188-0.046875 0.039062-0.023437 0.070312-0.070313 0.09375-0.14062l0.015625-0.03125z"/>
  </symbol>
  <symbol id="i" overflow="visible">
   <path d="m1.3906-1.4531v0.375c-0.09375-0.050781-0.19531-0.085937-0.29688-0.10938-0.09375-0.019531-0.18359-0.03125-0.26562-0.03125-0.085937 0-0.15234 0.015625-0.20312 0.046875-0.042969 0.023437-0.0625 0.054687-0.0625 0.09375 0 0.042969 0.015625 0.074219 0.046875 0.09375 0.03125 0.023437 0.09375 0.039063 0.1875 0.046875l0.078125 0.015625c0.25 0.03125 0.41406 0.085937 0.5 0.15625 0.082031 0.0625 0.125 0.17188 0.125 0.32812s-0.0625 0.27734-0.1875 0.35938c-0.11719 0.074219-0.28906 0.10938-0.51562 0.10938-0.10547 0-0.21094-0.011719-0.3125-0.03125-0.10547-0.0078125-0.21094-0.03125-0.3125-0.0625v-0.35938c0.09375 0.054687 0.1875 0.089844 0.28125 0.10938 0.10156 0.023438 0.20703 0.03125 0.3125 0.03125 0.09375 0 0.16016-0.007812 0.20312-0.03125 0.050781-0.03125 0.078125-0.070312 0.078125-0.125 0-0.039062-0.015625-0.070312-0.046875-0.09375-0.03125-0.019531-0.10156-0.035156-0.20312-0.046875l-0.078125-0.015625c-0.21875-0.019531-0.37109-0.066406-0.45312-0.14062-0.085937-0.070313-0.125-0.17969-0.125-0.32812 0-0.15625 0.050781-0.26953 0.15625-0.34375 0.11328-0.082031 0.28125-0.125 0.5-0.125 0.09375 0 0.1875 0.011719 0.28125 0.03125 0.10156 0.011719 0.20703 0.027344 0.3125 0.046875z"/>
  </symbol>
  <symbol id="h" overflow="visible">
   <path d="m1.7344-0.90625v0.90625h-0.48438v-0.6875c0-0.13281-0.007812-0.22266-0.015625-0.26562 0-0.050781-0.007813-0.09375-0.015625-0.125-0.023438-0.03125-0.046875-0.050781-0.078125-0.0625-0.03125-0.019531-0.070313-0.03125-0.10938-0.03125-0.10547 0-0.1875 0.042969-0.25 0.125-0.054688 0.074219-0.078125 0.17969-0.078125 0.3125v0.73438h-0.46875v-2.0781h0.46875v0.79688c0.070313-0.082031 0.14844-0.14453 0.23438-0.1875 0.082031-0.039062 0.17188-0.0625 0.26562-0.0625 0.17578 0 0.30469 0.054688 0.39062 0.15625 0.09375 0.10547 0.14062 0.26172 0.14062 0.46875z"/>
  </symbol>
  <symbol id="g" overflow="visible">
   <path d="m0.21875-0.57812v-0.92188h0.46875v0.15625 0.3125 0.23438 0.26562c0.007812 0.054688 0.023438 0.089844 0.046875 0.10938 0.019531 0.03125 0.046875 0.058594 0.078125 0.078125 0.03125 0.011719 0.066406 0.015625 0.10938 0.015625 0.09375 0 0.16406-0.035156 0.21875-0.10938 0.0625-0.070312 0.09375-0.17578 0.09375-0.3125v-0.75h0.48438v1.5h-0.48438v-0.21875c-0.074219 0.09375-0.15234 0.16406-0.23438 0.20312-0.074219 0.03125-0.15625 0.046875-0.25 0.046875-0.17969 0-0.3125-0.050781-0.40625-0.15625-0.085938-0.10156-0.125-0.25391-0.125-0.45312z"/>
  </symbol>
  <symbol id="t" overflow="visible">
   <path d="m0.23438-1.5h0.46875v1.5h-0.46875zm0-0.57812h0.46875v0.39062h-0.46875z"/>
  </symbol>
  <symbol id="s" overflow="visible">
   <path d="m0.09375-1.5h0.46875l0.25 1.0312 0.25-1.0312h0.40625l0.25 1.0312 0.25-1.0312h0.46875l-0.40625 1.5h-0.51562l-0.25-1.0312-0.25 1.0312h-0.53125z"/>
  </symbol>
  <symbol id="f" overflow="visible">
   <path d="m1.2188-2.0781v0.3125h-0.26562c-0.074219 0-0.125 0.015625-0.15625 0.046875-0.023437 0.023438-0.03125 0.0625-0.03125 0.125v0.09375h0.40625v0.34375h-0.40625v1.1562h-0.46875v-1.1562h-0.25v-0.34375h0.25v-0.09375c0-0.16406 0.039063-0.28516 0.125-0.35938 0.09375-0.082031 0.23438-0.125 0.42188-0.125z"/>
  </symbol>
  <symbol id="e" overflow="visible">
   <path d="m0.9375-1.1875c-0.10547 0-0.1875 0.039062-0.25 0.10938-0.054688 0.074219-0.078125 0.18359-0.078125 0.32812 0 0.14844 0.023437 0.26172 0.078125 0.34375 0.0625 0.074219 0.14453 0.10938 0.25 0.10938 0.10156 0 0.17969-0.035156 0.23438-0.10938 0.0625-0.082031 0.09375-0.19531 0.09375-0.34375 0-0.14453-0.03125-0.25391-0.09375-0.32812-0.054687-0.070313-0.13281-0.10938-0.23438-0.10938zm0-0.34375c0.25781 0 0.46094 0.074219 0.60938 0.21875 0.14453 0.13672 0.21875 0.32422 0.21875 0.5625 0 0.25-0.074219 0.44531-0.21875 0.57812-0.14844 0.13672-0.35156 0.20312-0.60938 0.20312-0.26172 0-0.46484-0.066406-0.60938-0.20312-0.13672-0.13281-0.20312-0.32812-0.20312-0.57812 0-0.23828 0.066406-0.42578 0.20312-0.5625 0.14453-0.14453 0.34766-0.21875 0.60938-0.21875z"/>
  </symbol>
  <symbol id="r" overflow="visible">
   <path d="m1.6094-1.25c0.0625-0.09375 0.13281-0.16016 0.21875-0.20312 0.082031-0.050781 0.17578-0.078125 0.28125-0.078125 0.16406 0 0.29688 0.054688 0.39062 0.15625 0.09375 0.10547 0.14062 0.26172 0.14062 0.46875v0.90625h-0.48438v-0.78125-0.03125-0.0625c0-0.10156-0.015625-0.17578-0.046875-0.21875-0.03125-0.050781-0.085937-0.078125-0.15625-0.078125-0.085937 0-0.15234 0.039063-0.20312 0.10938-0.054688 0.074219-0.078125 0.18359-0.078125 0.32812v0.73438h-0.48438v-0.78125c0-0.16406-0.015625-0.26953-0.046875-0.3125-0.023437-0.050781-0.070313-0.078125-0.14062-0.078125-0.09375 0-0.16797 0.042969-0.21875 0.125-0.054688 0.074219-0.078125 0.17969-0.078125 0.3125v0.73438h-0.46875v-1.5h0.46875v0.21875c0.0625-0.082031 0.12891-0.14453 0.20312-0.1875 0.082031-0.039062 0.16406-0.0625 0.25-0.0625 0.10156 0 0.19141 0.027344 0.26562 0.078125 0.082031 0.054687 0.14453 0.12109 0.1875 0.20312z"/>
  </symbol>
  <symbol id="q" overflow="visible">
   <path d="m0.25-2h0.57812l0.71875 1.375v-1.375h0.48438v2h-0.5625l-0.73438-1.375v1.375h-0.48438z"/>
  </symbol>
  <symbol id="p" overflow="visible">
   <path d="m1.7344-0.90625v0.90625h-0.48438v-0.70312c0-0.125-0.007812-0.20703-0.015625-0.25 0-0.050781-0.007813-0.09375-0.015625-0.125-0.023438-0.03125-0.046875-0.050781-0.078125-0.0625-0.03125-0.019531-0.070313-0.03125-0.10938-0.03125-0.10547 0-0.1875 0.042969-0.25 0.125-0.054688 0.074219-0.078125 0.17969-0.078125 0.3125v0.73438h-0.46875v-1.5h0.46875v0.21875c0.070313-0.082031 0.14844-0.14453 0.23438-0.1875 0.082031-0.039062 0.17188-0.0625 0.26562-0.0625 0.17578 0 0.30469 0.054688 0.39062 0.15625 0.09375 0.10547 0.14062 0.26172 0.14062 0.46875z"/>
  </symbol>
  <symbol id="o" overflow="visible">
   <path d="m0.25-2h0.85938c0.25 0 0.44141 0.058594 0.57812 0.17188 0.13281 0.11719 0.20312 0.27734 0.20312 0.48438 0 0.21094-0.070313 0.37109-0.20312 0.48438-0.13672 0.11719-0.32812 0.17188-0.57812 0.17188h-0.34375v0.6875h-0.51562zm0.51562 0.375v0.5625h0.28125c0.10156 0 0.17969-0.019531 0.23438-0.0625 0.050781-0.050781 0.078125-0.125 0.078125-0.21875s-0.027344-0.16016-0.078125-0.20312c-0.054688-0.050781-0.13281-0.078125-0.23438-0.078125z"/>
  </symbol>
  <symbol id="n" overflow="visible">
   <path d="m0.23438-1.5h0.46875v1.4688c0 0.20703-0.046875 0.36328-0.14062 0.46875-0.09375 0.10156-0.23438 0.15625-0.42188 0.15625h-0.23438v-0.3125h0.078125c0.09375 0 0.15625-0.023438 0.1875-0.0625 0.039063-0.042969 0.0625-0.125 0.0625-0.25zm0-0.57812h0.46875v0.39062h-0.46875z"/>
  </symbol>
  <symbol id="m" overflow="visible">
   <path d="m1.4375-1.4531v0.39062c-0.0625-0.039062-0.13281-0.070312-0.20312-0.09375-0.0625-0.019531-0.13281-0.03125-0.20312-0.03125-0.125 0-0.23047 0.042969-0.3125 0.125-0.074219 0.074219-0.10938 0.17969-0.10938 0.3125 0 0.14844 0.035156 0.26172 0.10938 0.34375 0.082031 0.074219 0.1875 0.10938 0.3125 0.10938 0.082031 0 0.15625-0.007813 0.21875-0.03125 0.070312-0.03125 0.13281-0.066406 0.1875-0.10938v0.39062c-0.074219 0.03125-0.15234 0.050781-0.23438 0.0625-0.074219 0.0078125-0.14844 0.015625-0.21875 0.015625-0.27344 0-0.48438-0.066406-0.64062-0.20312-0.14844-0.13281-0.21875-0.32812-0.21875-0.57812 0-0.23828 0.070312-0.42578 0.21875-0.5625 0.15625-0.14453 0.36719-0.21875 0.64062-0.21875 0.070313 0 0.14453 0.011719 0.21875 0.03125 0.082031 0.011719 0.16016 0.027344 0.23438 0.046875z"/>
  </symbol>
 </defs>
 <g>
  <path d="m369.91 149.79c27.398 4.7031 52.445 17.664 72.406 37.57 19.852 19.852 32.867 44.898 37.57 72.352 1.8047 10.828 11.102 18.648 22.094 18.648 1.4219 0 2.6797-0.16406 3.5547-0.32812 0.054688 0 0.10938 0 0.16406-0.054688 5.9609-0.98437 11.156-4.2109 14.602-9.1875 3.4453-4.9219 4.7578-10.828 3.7188-16.68-6.2344-36.641-23.516-70-50.039-96.523-26.633-26.523-60.047-43.805-96.633-49.984h-0.054688c-12.195-2.0234-23.734 6.2344-25.758 18.375-1.9141 12.25 6.2891 23.789 18.375 25.812z"/>
  <path d="m507.77 337.53c-12.25-12.742-27.07-19.469-42.875-19.469-15.641 0-30.57 6.6172-43.094 19.195l-31.117 31.117c-0.76562-0.38281-1.5312-0.76562-2.2422-1.1484l-1.5859-0.76562c-3.3359-1.6953-7.1641-3.6094-10.336-5.5781-31.938-20.289-61.086-46.867-89.195-81.32-12.031-15.148-20.453-28-26.633-40.797 7.8203-7.3828 15.094-14.766 21.93-21.766 1.5312-1.5312 3.0625-3.1172 4.6484-4.7031 1.5312-1.5859 3.1172-3.1719 4.7031-4.7578 13.016-13.016 19.906-28.109 19.852-43.641 0-15.477-6.8906-30.516-19.852-43.422l-30.242-30.242c-1.75-1.75-3.5-3.5-5.1953-5.25-1.6953-1.75-3.4453-3.5-5.1406-5.1953l-2.4062-2.4609c-5.9609-6.0703-12.141-12.359-18.375-18.102-12.141-12.086-26.852-18.484-42.438-18.484-15.531 0-30.352 6.3984-42.984 18.484-0.054687 0.054688-0.10937 0.054688-0.10937 0.10938l-37.898 37.844c-15.477 15.477-24.281 34.344-26.195 56.055v0.054687c-2.0234 25.703 2.625 52.828 14.656 85.367 18.211 49.219 45.555 94.828 85.969 143.5 49.328 58.789 108.55 105.16 175.98 137.81h0.054688c25.977 12.414 60.867 26.961 100.24 29.531h0.16406 0.27344c2.2422 0.10938 4.5938 0.21875 7.0547 0.21875 27.617 0 50.914-10.008 69.18-29.75l0.27344-0.27344c0.21875-0.21875 0.38281-0.38281 0.54688-0.60156 5.4688-6.5625 11.758-12.633 18.812-19.414 4.8672-4.6484 9.8438-9.4062 14.656-14.547 12.414-12.961 18.977-28.055 18.922-43.641-0.054688-15.641-6.7266-30.57-19.305-43.148zm-6.0156 152.41c-9.7344 10.391-20.891 15.039-36.094 15.039-1.4219 0-3.0078-0.10938-4.6484-0.21875-31.5-2.0234-61.305-14.492-83.727-25.156-61.906-29.805-116.16-72.242-161.27-126.16-36.914-44.461-61.797-85.914-78.258-130.32-9.8438-26.414-13.562-46.867-12.031-66.172 0.98438-11.266 5.1953-20.234 13.234-28.164l37.625-37.625c3.9375-3.7734 7.9844-5.7969 11.758-5.7969 3.5547 0 7.3281 1.9688 11.32 5.8516 0.054688 0.054688 0.10938 0.10938 0.16406 0.16406 6.5078 6.125 12.852 12.578 19.578 19.359l0.21875 0.21875c3.2266 3.3359 6.9453 7.1641 10.719 10.828l30.188 30.188c8.8047 8.8047 8.8047 14.984 0 23.789-3.1719 3.1719-6.3984 6.3984-9.5703 9.6797l-2.2422 2.2969c-8.4766 8.5859-16.461 16.68-25.156 24.391-0.10938 0.10938-0.27344 0.21875-0.38281 0.38281l-0.54688 0.54688c-9.2422 9.2422-11.758 20.289-7.4375 32.758 0.10938 0.32813 0.21875 0.60156 0.32813 0.875 0.054687 0.16406 0.10937 0.32813 0.21875 0.49219 8.0938 19.523 19.469 38.062 36.969 60.211 0 0.054687 0.054687 0.054687 0.054687 0.10937 31.062 38.227 63.82 68.086 100.19 91.164 4.7578 3.0078 9.6797 5.5234 14.273 7.8203 3.3906 1.6953 7.2188 3.6641 10.391 5.5781 0.21875 0.16406 0.4375 0.27344 0.65625 0.38281l0.16406 0.10938c0.32812 0.16406 0.65625 0.38281 1.0391 0.54688 4.7578 2.4062 9.4609 3.5547 14.328 3.5547 8.3125 0 15.969-3.4453 22.148-9.9531l37.844-37.844c2.7344-2.7344 7-6.0156 11.484-6.0156 4.1562 0 8.2031 3.2266 10.828 5.9609 0.054687 0.054688 0.054687 0.054688 0.10938 0.10938l61.086 61.086c6.0156 6.0156 10.117 13.125-0.49219 24.281l-0.054688 0.054688c-3.3359 3.6094-6.8906 7.0547-10.664 10.719-0.82031 0.76562-1.6406 1.5859-2.4609 2.4062-7.6562 7.1641-14.984 14.273-21.875 22.477z"/>
  <path d="m619.12 247.73c-10.062-59.227-38.062-113.26-80.992-156.19-43.094-42.984-97.125-70.984-156.41-80.992-12.195-2.0234-23.734 6.2344-25.758 18.375-2.0234 12.195 6.2344 23.734 18.32 25.758 50.148 8.5312 95.812 32.266 132.12 68.523 36.312 36.312 59.992 81.977 68.523 132.07 1.8047 10.828 11.102 18.648 22.094 18.648h0.16406c1.3672 0 2.5156-0.16406 3.3906-0.32813 0.054687 0 0.10938 0 0.16406-0.054687 5.9609-0.98438 11.156-4.2109 14.602-9.1875 3.5-4.8672 4.8125-10.773 3.7734-16.625z"/>
  <use x="70" y="568.203125" xlink:href="#u"/>
  <use x="72.007812" y="568.203125" xlink:href="#d"/>
  <use x="73.355469" y="568.203125" xlink:href="#b"/>
  <use x="75.210937" y="568.203125" xlink:href="#c"/>
  <use x="77.054688" y="568.203125" xlink:href="#a"/>
  <use x="78.363281" y="568.203125" xlink:href="#b"/>
  <use x="80.214844" y="568.203125" xlink:href="#l"/>
  <use x="83.125" y="568.203125" xlink:href="#k"/>
  <use x="85.082031" y="568.203125" xlink:href="#j"/>
  <use x="87.816406" y="568.203125" xlink:href="#i"/>
  <use x="89.445312" y="568.203125" xlink:href="#h"/>
  <use x="91.390625" y="568.203125" xlink:href="#g"/>
  <use x="93.339844" y="568.203125" xlink:href="#c"/>
  <use x="95.183594" y="568.203125" xlink:href="#t"/>
  <use x="97.074219" y="568.203125" xlink:href="#a"/>
  <use x="98.378906" y="568.203125" xlink:href="#c"/>
  <use x="100.226562" y="568.203125" xlink:href="#s"/>
  <use x="102.75" y="568.203125" xlink:href="#f"/>
  <use x="70" y="570.9375" xlink:href="#f"/>
  <use x="71.191406" y="570.9375" xlink:href="#d"/>
  <use x="72.539062" y="570.9375" xlink:href="#e"/>
  <use x="74.417969" y="570.9375" xlink:href="#r"/>
  <use x="78.21875" y="570.9375" xlink:href="#a"/>
  <use x="79.523438" y="570.9375" xlink:href="#h"/>
  <use x="81.472656" y="570.9375" xlink:href="#b"/>
  <use x="84.277344" y="570.9375" xlink:href="#q"/>
  <use x="86.566406" y="570.9375" xlink:href="#e"/>
  <use x="88.445312" y="570.9375" xlink:href="#g"/>
  <use x="90.390625" y="570.9375" xlink:href="#p"/>
  <use x="93.289062" y="570.9375" xlink:href="#o"/>
  <use x="95.292969" y="570.9375" xlink:href="#d"/>
  <use x="96.644531" y="570.9375" xlink:href="#e"/>
  <use x="98.519531" y="570.9375" xlink:href="#n"/>
  <use x="99.457031" y="570.9375" xlink:href="#b"/>
  <use x="101.3125" y="570.9375" xlink:href="#m"/>
  <use x="102.933594" y="570.9375" xlink:href="#a"/>
 </g>
</svg>
